<mxfile host="Electron" modified="2024-02-03T12:13:52.293Z" agent="Mozilla/5.0 (Windows NT 10.0; Win64; x64) AppleWebKit/537.36 (KHTML, like Gecko) draw.io/23.0.2 Chrome/120.0.6099.109 Electron/28.1.0 Safari/537.36" etag="pZHB1gjhoGfM-rO6idE2" version="23.0.2" type="device">
  <diagram name="Страница 1" id="PMY1KLv_xR5FX6VvXqNS">
    <mxGraphModel dx="1843" dy="899" grid="1" gridSize="10" guides="1" tooltips="1" connect="1" arrows="1" fold="1" page="1" pageScale="1" pageWidth="827" pageHeight="1169" math="0" shadow="0">
      <root>
        <mxCell id="0" />
        <mxCell id="1" parent="0" />
        <mxCell id="74HWgd0UK0leHG1zV_2B-1" value="Student" style="shape=umlActor;verticalLabelPosition=bottom;verticalAlign=top;html=1;" parent="1" vertex="1">
          <mxGeometry x="44" y="410" width="30" height="60" as="geometry" />
        </mxCell>
        <mxCell id="74HWgd0UK0leHG1zV_2B-2" value="Teacher&lt;br&gt;" style="shape=umlActor;verticalLabelPosition=bottom;verticalAlign=top;html=1;" parent="1" vertex="1">
          <mxGeometry x="735" y="410" width="30" height="60" as="geometry" />
        </mxCell>
        <mxCell id="74HWgd0UK0leHG1zV_2B-3" value="Admin" style="shape=umlActor;verticalLabelPosition=bottom;verticalAlign=top;html=1;" parent="1" vertex="1">
          <mxGeometry x="44" y="710" width="30" height="60" as="geometry" />
        </mxCell>
        <mxCell id="74HWgd0UK0leHG1zV_2B-4" value="Authorization" style="ellipse;whiteSpace=wrap;html=1;" parent="1" vertex="1">
          <mxGeometry x="344" y="640" width="140" height="70" as="geometry" />
        </mxCell>
        <mxCell id="74HWgd0UK0leHG1zV_2B-7" value="" style="endArrow=none;html=1;rounded=0;entryX=0;entryY=1;entryDx=0;entryDy=0;entryPerimeter=0;exitX=0;exitY=0;exitDx=0;exitDy=0;" parent="1" source="74HWgd0UK0leHG1zV_2B-4" target="74HWgd0UK0leHG1zV_2B-1" edge="1">
          <mxGeometry width="50" height="50" relative="1" as="geometry">
            <mxPoint x="374" y="640" as="sourcePoint" />
            <mxPoint x="424" y="590" as="targetPoint" />
          </mxGeometry>
        </mxCell>
        <mxCell id="74HWgd0UK0leHG1zV_2B-8" value="" style="endArrow=none;html=1;rounded=0;entryX=1;entryY=1;entryDx=0;entryDy=0;entryPerimeter=0;exitX=0;exitY=1;exitDx=0;exitDy=0;" parent="1" source="74HWgd0UK0leHG1zV_2B-4" target="74HWgd0UK0leHG1zV_2B-3" edge="1">
          <mxGeometry width="50" height="50" relative="1" as="geometry">
            <mxPoint x="239" y="640" as="sourcePoint" />
            <mxPoint x="224" y="480" as="targetPoint" />
          </mxGeometry>
        </mxCell>
        <mxCell id="74HWgd0UK0leHG1zV_2B-9" value="" style="endArrow=none;html=1;rounded=0;entryX=1;entryY=1;entryDx=0;entryDy=0;entryPerimeter=0;exitX=1;exitY=0;exitDx=0;exitDy=0;" parent="1" source="74HWgd0UK0leHG1zV_2B-4" target="74HWgd0UK0leHG1zV_2B-2" edge="1">
          <mxGeometry width="50" height="50" relative="1" as="geometry">
            <mxPoint x="438" y="650" as="sourcePoint" />
            <mxPoint x="423" y="490" as="targetPoint" />
          </mxGeometry>
        </mxCell>
        <mxCell id="74HWgd0UK0leHG1zV_2B-10" value="Registration" style="ellipse;whiteSpace=wrap;html=1;" parent="1" vertex="1">
          <mxGeometry x="687" y="640" width="140" height="70" as="geometry" />
        </mxCell>
        <mxCell id="74HWgd0UK0leHG1zV_2B-12" value="&amp;lt;&amp;lt;include&amp;gt;&amp;gt;" style="html=1;verticalAlign=bottom;labelBackgroundColor=none;endArrow=open;endFill=0;dashed=1;rounded=0;exitX=0;exitY=1;exitDx=0;exitDy=0;entryX=1;entryY=1;entryDx=0;entryDy=0;" parent="1" source="74HWgd0UK0leHG1zV_2B-10" target="74HWgd0UK0leHG1zV_2B-4" edge="1">
          <mxGeometry x="-0.0015" width="160" relative="1" as="geometry">
            <mxPoint x="310" y="620" as="sourcePoint" />
            <mxPoint x="470" y="620" as="targetPoint" />
            <mxPoint as="offset" />
          </mxGeometry>
        </mxCell>
        <mxCell id="74HWgd0UK0leHG1zV_2B-13" value="&amp;lt;&amp;lt;extend&amp;gt;&amp;gt;" style="html=1;verticalAlign=bottom;labelBackgroundColor=none;endArrow=open;endFill=0;dashed=1;rounded=0;exitX=1;exitY=0.5;exitDx=0;exitDy=0;entryX=0;entryY=0.5;entryDx=0;entryDy=0;" parent="1" source="74HWgd0UK0leHG1zV_2B-4" target="74HWgd0UK0leHG1zV_2B-10" edge="1">
          <mxGeometry width="160" relative="1" as="geometry">
            <mxPoint x="310" y="620" as="sourcePoint" />
            <mxPoint x="470" y="620" as="targetPoint" />
          </mxGeometry>
        </mxCell>
        <mxCell id="74HWgd0UK0leHG1zV_2B-14" value="Creating a own test" style="ellipse;whiteSpace=wrap;html=1;" parent="1" vertex="1">
          <mxGeometry x="680" y="220" width="140" height="70" as="geometry" />
        </mxCell>
        <mxCell id="74HWgd0UK0leHG1zV_2B-16" value="" style="endArrow=none;html=1;rounded=0;entryX=0.5;entryY=1;entryDx=0;entryDy=0;exitX=0.5;exitY=0;exitDx=0;exitDy=0;exitPerimeter=0;" parent="1" source="74HWgd0UK0leHG1zV_2B-2" target="74HWgd0UK0leHG1zV_2B-14" edge="1">
          <mxGeometry width="50" height="50" relative="1" as="geometry">
            <mxPoint x="478" y="650" as="sourcePoint" />
            <mxPoint x="745" y="470" as="targetPoint" />
            <Array as="points">
              <mxPoint x="750" y="360" />
            </Array>
          </mxGeometry>
        </mxCell>
        <mxCell id="74HWgd0UK0leHG1zV_2B-17" value="Changing/removing a own test" style="ellipse;whiteSpace=wrap;html=1;" parent="1" vertex="1">
          <mxGeometry x="460" y="220" width="160" height="70" as="geometry" />
        </mxCell>
        <mxCell id="74HWgd0UK0leHG1zV_2B-19" value="" style="endArrow=none;html=1;rounded=0;entryX=1;entryY=1;entryDx=0;entryDy=0;exitX=0.25;exitY=0.1;exitDx=0;exitDy=0;exitPerimeter=0;" parent="1" source="74HWgd0UK0leHG1zV_2B-2" target="74HWgd0UK0leHG1zV_2B-17" edge="1">
          <mxGeometry width="50" height="50" relative="1" as="geometry">
            <mxPoint x="690" y="410" as="sourcePoint" />
            <mxPoint x="690" y="300" as="targetPoint" />
            <Array as="points" />
          </mxGeometry>
        </mxCell>
        <mxCell id="74HWgd0UK0leHG1zV_2B-21" style="edgeStyle=orthogonalEdgeStyle;rounded=0;orthogonalLoop=1;jettySize=auto;html=1;entryX=0;entryY=0.5;entryDx=0;entryDy=0;" parent="1" source="74HWgd0UK0leHG1zV_2B-20" target="74HWgd0UK0leHG1zV_2B-17" edge="1">
          <mxGeometry relative="1" as="geometry">
            <Array as="points">
              <mxPoint x="370" y="255" />
            </Array>
          </mxGeometry>
        </mxCell>
        <mxCell id="74HWgd0UK0leHG1zV_2B-20" value="Changing/creating/removing&amp;nbsp;a question" style="ellipse;whiteSpace=wrap;html=1;" parent="1" vertex="1">
          <mxGeometry x="260" y="20" width="190" height="70" as="geometry" />
        </mxCell>
        <mxCell id="74HWgd0UK0leHG1zV_2B-23" style="edgeStyle=orthogonalEdgeStyle;rounded=0;orthogonalLoop=1;jettySize=auto;html=1;entryX=0.5;entryY=0;entryDx=0;entryDy=0;" parent="1" source="74HWgd0UK0leHG1zV_2B-22" target="74HWgd0UK0leHG1zV_2B-17" edge="1">
          <mxGeometry relative="1" as="geometry" />
        </mxCell>
        <mxCell id="74HWgd0UK0leHG1zV_2B-22" value="Changing/creating/removing a possible answer" style="ellipse;whiteSpace=wrap;html=1;" parent="1" vertex="1">
          <mxGeometry x="450" y="20" width="180" height="70" as="geometry" />
        </mxCell>
        <mxCell id="74HWgd0UK0leHG1zV_2B-26" style="edgeStyle=orthogonalEdgeStyle;rounded=0;orthogonalLoop=1;jettySize=auto;html=1;entryX=0.5;entryY=0;entryDx=0;entryDy=0;" parent="1" source="74HWgd0UK0leHG1zV_2B-25" target="74HWgd0UK0leHG1zV_2B-14" edge="1">
          <mxGeometry relative="1" as="geometry">
            <Array as="points">
              <mxPoint x="750" y="170" />
              <mxPoint x="750" y="170" />
            </Array>
          </mxGeometry>
        </mxCell>
        <mxCell id="74HWgd0UK0leHG1zV_2B-25" value="Adding a possible answer/qustion/photo/settings" style="ellipse;whiteSpace=wrap;html=1;" parent="1" vertex="1">
          <mxGeometry x="640" y="20" width="180" height="70" as="geometry" />
        </mxCell>
        <mxCell id="74HWgd0UK0leHG1zV_2B-30" value="Passing the test" style="ellipse;whiteSpace=wrap;html=1;" parent="1" vertex="1">
          <mxGeometry x="344" y="370" width="140" height="70" as="geometry" />
        </mxCell>
        <mxCell id="74HWgd0UK0leHG1zV_2B-32" value="" style="endArrow=none;html=1;rounded=0;exitX=1;exitY=0.3333333333333333;exitDx=0;exitDy=0;exitPerimeter=0;entryX=0;entryY=0.5;entryDx=0;entryDy=0;" parent="1" source="74HWgd0UK0leHG1zV_2B-1" target="74HWgd0UK0leHG1zV_2B-30" edge="1">
          <mxGeometry width="50" height="50" relative="1" as="geometry">
            <mxPoint x="477" y="650" as="sourcePoint" />
            <mxPoint x="340" y="410" as="targetPoint" />
          </mxGeometry>
        </mxCell>
        <mxCell id="74HWgd0UK0leHG1zV_2B-33" value="" style="endArrow=none;html=1;rounded=0;exitX=1;exitY=0.5;exitDx=0;exitDy=0;entryX=0;entryY=0.3333333333333333;entryDx=0;entryDy=0;entryPerimeter=0;" parent="1" source="74HWgd0UK0leHG1zV_2B-30" target="74HWgd0UK0leHG1zV_2B-2" edge="1">
          <mxGeometry width="50" height="50" relative="1" as="geometry">
            <mxPoint x="440" y="420" as="sourcePoint" />
            <mxPoint x="710" y="425" as="targetPoint" />
          </mxGeometry>
        </mxCell>
        <mxCell id="74HWgd0UK0leHG1zV_2B-34" value="Leaving a review" style="ellipse;whiteSpace=wrap;html=1;" parent="1" vertex="1">
          <mxGeometry x="344" y="479.5" width="140" height="70" as="geometry" />
        </mxCell>
        <mxCell id="74HWgd0UK0leHG1zV_2B-37" style="edgeStyle=orthogonalEdgeStyle;rounded=0;orthogonalLoop=1;jettySize=auto;html=1;entryX=0.5;entryY=1;entryDx=0;entryDy=0;" parent="1" source="74HWgd0UK0leHG1zV_2B-36" target="74HWgd0UK0leHG1zV_2B-17" edge="1">
          <mxGeometry relative="1" as="geometry">
            <Array as="points">
              <mxPoint x="150" y="310" />
              <mxPoint x="540" y="310" />
            </Array>
          </mxGeometry>
        </mxCell>
        <mxCell id="74HWgd0UK0leHG1zV_2B-36" value="Changing a settings" style="ellipse;whiteSpace=wrap;html=1;" parent="1" vertex="1">
          <mxGeometry x="60" y="20" width="180" height="70" as="geometry" />
        </mxCell>
        <mxCell id="74HWgd0UK0leHG1zV_2B-38" value="&amp;lt;&amp;lt;extend&amp;gt;&amp;gt;" style="html=1;verticalAlign=bottom;labelBackgroundColor=none;endArrow=open;endFill=0;dashed=1;rounded=0;exitX=0;exitY=1;exitDx=0;exitDy=0;entryX=0;entryY=0;entryDx=0;entryDy=0;" parent="1" source="74HWgd0UK0leHG1zV_2B-30" target="74HWgd0UK0leHG1zV_2B-34" edge="1">
          <mxGeometry width="160" relative="1" as="geometry">
            <mxPoint x="494" y="615" as="sourcePoint" />
            <mxPoint x="697" y="615" as="targetPoint" />
          </mxGeometry>
        </mxCell>
        <mxCell id="74HWgd0UK0leHG1zV_2B-39" value="&amp;lt;&amp;lt;include&amp;gt;&amp;gt;" style="html=1;verticalAlign=bottom;labelBackgroundColor=none;endArrow=open;endFill=0;dashed=1;rounded=0;exitX=1;exitY=0;exitDx=0;exitDy=0;entryX=1;entryY=1;entryDx=0;entryDy=0;" parent="1" source="74HWgd0UK0leHG1zV_2B-34" target="74HWgd0UK0leHG1zV_2B-30" edge="1">
          <mxGeometry x="-0.0062" width="160" relative="1" as="geometry">
            <mxPoint x="473" y="640" as="sourcePoint" />
            <mxPoint x="718" y="640" as="targetPoint" />
            <mxPoint as="offset" />
          </mxGeometry>
        </mxCell>
        <mxCell id="74HWgd0UK0leHG1zV_2B-40" value="View every categories/tests" style="ellipse;whiteSpace=wrap;html=1;" parent="1" vertex="1">
          <mxGeometry x="344" y="560" width="140" height="70" as="geometry" />
        </mxCell>
        <mxCell id="74HWgd0UK0leHG1zV_2B-41" value="" style="endArrow=none;html=1;rounded=0;entryX=1;entryY=1;entryDx=0;entryDy=0;entryPerimeter=0;exitX=0;exitY=0.5;exitDx=0;exitDy=0;" parent="1" source="74HWgd0UK0leHG1zV_2B-40" target="74HWgd0UK0leHG1zV_2B-1" edge="1">
          <mxGeometry width="50" height="50" relative="1" as="geometry">
            <mxPoint x="375" y="650" as="sourcePoint" />
            <mxPoint x="54" y="480" as="targetPoint" />
          </mxGeometry>
        </mxCell>
        <mxCell id="74HWgd0UK0leHG1zV_2B-42" value="" style="endArrow=none;html=1;rounded=0;entryX=0;entryY=1;entryDx=0;entryDy=0;entryPerimeter=0;exitX=1;exitY=0.5;exitDx=0;exitDy=0;" parent="1" source="74HWgd0UK0leHG1zV_2B-40" target="74HWgd0UK0leHG1zV_2B-2" edge="1">
          <mxGeometry width="50" height="50" relative="1" as="geometry">
            <mxPoint x="354" y="585" as="sourcePoint" />
            <mxPoint x="84" y="480" as="targetPoint" />
          </mxGeometry>
        </mxCell>
        <mxCell id="74HWgd0UK0leHG1zV_2B-43" value="" style="endArrow=none;html=1;rounded=0;entryX=1;entryY=0.3333333333333333;entryDx=0;entryDy=0;entryPerimeter=0;exitX=0;exitY=1;exitDx=0;exitDy=0;" parent="1" source="74HWgd0UK0leHG1zV_2B-40" target="74HWgd0UK0leHG1zV_2B-3" edge="1">
          <mxGeometry width="50" height="50" relative="1" as="geometry">
            <mxPoint x="364" y="595" as="sourcePoint" />
            <mxPoint x="94" y="490" as="targetPoint" />
          </mxGeometry>
        </mxCell>
        <mxCell id="74HWgd0UK0leHG1zV_2B-44" value="View/change scores" style="ellipse;whiteSpace=wrap;html=1;" parent="1" vertex="1">
          <mxGeometry x="520" y="420" width="140" height="70" as="geometry" />
        </mxCell>
        <mxCell id="74HWgd0UK0leHG1zV_2B-45" value="" style="endArrow=none;html=1;rounded=0;exitX=1;exitY=0.5;exitDx=0;exitDy=0;entryX=0.5;entryY=0.5;entryDx=0;entryDy=0;entryPerimeter=0;" parent="1" source="74HWgd0UK0leHG1zV_2B-44" target="74HWgd0UK0leHG1zV_2B-2" edge="1">
          <mxGeometry width="50" height="50" relative="1" as="geometry">
            <mxPoint x="494" y="375" as="sourcePoint" />
            <mxPoint x="745" y="440" as="targetPoint" />
          </mxGeometry>
        </mxCell>
        <mxCell id="74HWgd0UK0leHG1zV_2B-46" value="Delete any test" style="ellipse;whiteSpace=wrap;html=1;" parent="1" vertex="1">
          <mxGeometry x="180" y="740" width="140" height="70" as="geometry" />
        </mxCell>
        <mxCell id="74HWgd0UK0leHG1zV_2B-47" value="Create/remove/change a categorie" style="ellipse;whiteSpace=wrap;html=1;" parent="1" vertex="1">
          <mxGeometry x="180" y="920" width="140" height="70" as="geometry" />
        </mxCell>
        <mxCell id="74HWgd0UK0leHG1zV_2B-48" value="Delete any user" style="ellipse;whiteSpace=wrap;html=1;" parent="1" vertex="1">
          <mxGeometry x="20" y="920" width="140" height="70" as="geometry" />
        </mxCell>
        <mxCell id="74HWgd0UK0leHG1zV_2B-49" value="" style="endArrow=none;html=1;rounded=0;entryX=0;entryY=1;entryDx=0;entryDy=0;entryPerimeter=0;exitX=0;exitY=0;exitDx=0;exitDy=0;" parent="1" source="74HWgd0UK0leHG1zV_2B-48" target="74HWgd0UK0leHG1zV_2B-3" edge="1">
          <mxGeometry width="50" height="50" relative="1" as="geometry">
            <mxPoint x="375" y="700" as="sourcePoint" />
            <mxPoint x="84" y="780" as="targetPoint" />
          </mxGeometry>
        </mxCell>
        <mxCell id="74HWgd0UK0leHG1zV_2B-50" value="" style="endArrow=none;html=1;rounded=0;entryX=1;entryY=1;entryDx=0;entryDy=0;entryPerimeter=0;exitX=0;exitY=0.5;exitDx=0;exitDy=0;" parent="1" source="74HWgd0UK0leHG1zV_2B-47" target="74HWgd0UK0leHG1zV_2B-3" edge="1">
          <mxGeometry width="50" height="50" relative="1" as="geometry">
            <mxPoint x="385" y="710" as="sourcePoint" />
            <mxPoint x="94" y="790" as="targetPoint" />
          </mxGeometry>
        </mxCell>
        <mxCell id="74HWgd0UK0leHG1zV_2B-51" value="" style="endArrow=none;html=1;rounded=0;entryX=1;entryY=1;entryDx=0;entryDy=0;entryPerimeter=0;exitX=0;exitY=0.5;exitDx=0;exitDy=0;" parent="1" source="74HWgd0UK0leHG1zV_2B-46" target="74HWgd0UK0leHG1zV_2B-3" edge="1">
          <mxGeometry width="50" height="50" relative="1" as="geometry">
            <mxPoint x="395" y="720" as="sourcePoint" />
            <mxPoint x="104" y="800" as="targetPoint" />
          </mxGeometry>
        </mxCell>
        <mxCell id="74HWgd0UK0leHG1zV_2B-54" style="edgeStyle=orthogonalEdgeStyle;rounded=0;orthogonalLoop=1;jettySize=auto;html=1;entryX=0;entryY=1;entryDx=0;entryDy=0;" parent="1" source="74HWgd0UK0leHG1zV_2B-52" target="74HWgd0UK0leHG1zV_2B-17" edge="1">
          <mxGeometry relative="1" as="geometry">
            <Array as="points">
              <mxPoint x="265" y="280" />
            </Array>
          </mxGeometry>
        </mxCell>
        <mxCell id="74HWgd0UK0leHG1zV_2B-52" value="Changing/creating/removing&amp;nbsp;a photo" style="ellipse;whiteSpace=wrap;html=1;" parent="1" vertex="1">
          <mxGeometry x="170" y="120" width="190" height="70" as="geometry" />
        </mxCell>
        <mxCell id="74HWgd0UK0leHG1zV_2B-55" value="offer a test to a student" style="ellipse;whiteSpace=wrap;html=1;" parent="1" vertex="1">
          <mxGeometry x="555" y="130" width="140" height="70" as="geometry" />
        </mxCell>
        <mxCell id="74HWgd0UK0leHG1zV_2B-56" value="" style="endArrow=none;html=1;rounded=0;entryX=0.5;entryY=1;entryDx=0;entryDy=0;" parent="1" target="74HWgd0UK0leHG1zV_2B-55" edge="1">
          <mxGeometry width="50" height="50" relative="1" as="geometry">
            <mxPoint x="750" y="410" as="sourcePoint" />
            <mxPoint x="607" y="290" as="targetPoint" />
            <Array as="points" />
          </mxGeometry>
        </mxCell>
        <mxCell id="74HWgd0UK0leHG1zV_2B-57" value="export as pdf/m. word/txt" style="ellipse;whiteSpace=wrap;html=1;" parent="1" vertex="1">
          <mxGeometry x="687" y="550" width="140" height="70" as="geometry" />
        </mxCell>
        <mxCell id="74HWgd0UK0leHG1zV_2B-58" value="" style="endArrow=none;html=1;rounded=0;exitX=1;exitY=0;exitDx=0;exitDy=0;entryX=1;entryY=1;entryDx=0;entryDy=0;entryPerimeter=0;" parent="1" source="74HWgd0UK0leHG1zV_2B-57" target="74HWgd0UK0leHG1zV_2B-2" edge="1">
          <mxGeometry width="50" height="50" relative="1" as="geometry">
            <mxPoint x="473" y="650" as="sourcePoint" />
            <mxPoint x="760" y="470" as="targetPoint" />
          </mxGeometry>
        </mxCell>
        <mxCell id="74HWgd0UK0leHG1zV_2B-59" value="export/import in json" style="ellipse;whiteSpace=wrap;html=1;" parent="1" vertex="1">
          <mxGeometry x="560" y="570" width="130" height="60" as="geometry" />
        </mxCell>
        <mxCell id="74HWgd0UK0leHG1zV_2B-60" value="" style="endArrow=none;html=1;rounded=0;exitX=0.5;exitY=0;exitDx=0;exitDy=0;entryX=0;entryY=1;entryDx=0;entryDy=0;entryPerimeter=0;" parent="1" source="74HWgd0UK0leHG1zV_2B-59" target="74HWgd0UK0leHG1zV_2B-2" edge="1">
          <mxGeometry width="50" height="50" relative="1" as="geometry">
            <mxPoint x="816" y="560" as="sourcePoint" />
            <mxPoint x="775" y="480" as="targetPoint" />
          </mxGeometry>
        </mxCell>
        <mxCell id="74HWgd0UK0leHG1zV_2B-62" value="export of results" style="ellipse;whiteSpace=wrap;html=1;" parent="1" vertex="1">
          <mxGeometry x="10" y="290" width="130" height="60" as="geometry" />
        </mxCell>
        <mxCell id="74HWgd0UK0leHG1zV_2B-63" value="" style="endArrow=none;html=1;rounded=0;exitX=0.5;exitY=0;exitDx=0;exitDy=0;exitPerimeter=0;entryX=0;entryY=1;entryDx=0;entryDy=0;" parent="1" source="74HWgd0UK0leHG1zV_2B-1" target="74HWgd0UK0leHG1zV_2B-62" edge="1">
          <mxGeometry width="50" height="50" relative="1" as="geometry">
            <mxPoint x="84" y="440" as="sourcePoint" />
            <mxPoint x="354" y="395" as="targetPoint" />
          </mxGeometry>
        </mxCell>
        <mxCell id="74HWgd0UK0leHG1zV_2B-64" value="View results" style="ellipse;whiteSpace=wrap;html=1;" parent="1" vertex="1">
          <mxGeometry x="204" y="310" width="140" height="70" as="geometry" />
        </mxCell>
        <mxCell id="74HWgd0UK0leHG1zV_2B-65" value="" style="endArrow=none;html=1;rounded=0;exitX=0;exitY=0.5;exitDx=0;exitDy=0;entryX=0.75;entryY=0.1;entryDx=0;entryDy=0;entryPerimeter=0;" parent="1" source="74HWgd0UK0leHG1zV_2B-64" target="74HWgd0UK0leHG1zV_2B-1" edge="1">
          <mxGeometry width="50" height="50" relative="1" as="geometry">
            <mxPoint x="69" y="420" as="sourcePoint" />
            <mxPoint x="39" y="351" as="targetPoint" />
          </mxGeometry>
        </mxCell>
        <mxCell id="74HWgd0UK0leHG1zV_2B-66" value="" style="endArrow=none;html=1;rounded=0;exitX=0.25;exitY=0.1;exitDx=0;exitDy=0;exitPerimeter=0;entryX=1;entryY=0.5;entryDx=0;entryDy=0;" parent="1" source="74HWgd0UK0leHG1zV_2B-2" target="74HWgd0UK0leHG1zV_2B-64" edge="1">
          <mxGeometry width="50" height="50" relative="1" as="geometry">
            <mxPoint x="79" y="430" as="sourcePoint" />
            <mxPoint x="49" y="361" as="targetPoint" />
          </mxGeometry>
        </mxCell>
      </root>
    </mxGraphModel>
  </diagram>
</mxfile>
